<?xml version="1.0" encoding="iso-8859-1"?>
<!-- Generator: Adobe Illustrator 19.0.0, SVG Export Plug-In . SVG Version: 6.00 Build 0)  -->
<svg version="1.1" id="Capa_1" xmlns="http://www.w3.org/2000/svg" xmlns:xlink="http://www.w3.org/1999/xlink" x="0px" y="0px"
	 viewBox="0 0 512 512" style="enable-background:new 0 0 512 512;" xml:space="preserve">
<path style="fill:#FFE2A8;" d="M388.186,19.271l5.074,94.922h10.149l15.223-15.223c8.865-8.865,15.223-20.507,15.223-34.03
	C433.855,39.719,413.409,19.271,388.186,19.271z"/>
<path style="fill:#FFF0D3;" d="M388.186,19.271c-25.222,0-45.669,20.447-45.669,45.669v11.196l20.297,7.611l-20.297,7.611v22.834
	h50.743l5.074-15.223c2.955-8.865,5.074-20.507,5.074-34.03C403.409,39.719,396.593,19.271,388.186,19.271z"/>
<g>
	<path style="fill:#353535;" d="M370.426,83.748c0-4.205-3.408-7.611-7.612-7.611h-20.297v15.223h20.297
		C367.018,91.359,370.426,87.952,370.426,83.748z"/>
	<circle style="fill:#353535;" cx="389.709" cy="57.878" r="15.223"/>
</g>
<path style="fill:#C27749;" d="M68.503,395.82C30.73,395.82,0,365.09,0,327.317s30.73-68.503,68.503-68.503
	s68.503,30.73,68.503,68.503S106.277,395.82,68.503,395.82z M68.503,274.036c-29.379,0-53.28,23.902-53.28,53.28
	c0,29.378,23.901,53.28,53.28,53.28s53.28-23.902,53.28-53.28C121.784,297.938,97.883,274.036,68.503,274.036z"/>
<path style="fill:#E18F4E;" d="M68.503,365.374c-29.379,0-53.28-23.902-53.28-53.28c0-29.378,23.901-53.28,53.28-53.28
	s53.28,23.902,53.28,53.28C121.784,341.472,97.883,365.374,68.503,365.374z M68.503,274.036c-20.985,0-38.057,17.072-38.057,38.057
	s17.072,38.057,38.057,38.057s38.057-17.072,38.057-38.057S89.489,274.036,68.503,274.036z"/>
<path style="fill:#A45E43;" d="M159.841,167.475c-54.561,0-98.949,44.388-98.949,98.949c0,4.205,3.408,7.611,7.611,7.611
	s7.611-3.407,7.611-7.611c0-46.166,37.559-83.726,83.726-83.726h60.892v-15.223H159.841z"/>
<path style="fill:#85453D;" d="M357.74,137.029h-15.223c-4.204,0-7.612,3.407-7.612,7.611c0,4.205,3.408,7.611,7.612,7.611h15.223
	c4.197,0,7.611,3.414,7.611,7.611c0,4.197-3.414,7.612-7.611,7.612H220.733v15.223H357.74c12.591,0,22.834-10.244,22.834-22.835
	C380.575,147.273,370.332,137.029,357.74,137.029z"/>
<polygon style="fill:#A45E43;" points="258.791,286.35 243.568,286.35 243.568,425.726 258.791,446.024 "/>
<path style="fill:#60312C;" d="M299.254,484.469l-17.627-5.876v-52.866h-38.059v50.741c0,3.276,2.097,6.185,5.204,7.221
	l45.667,15.223c3.986,1.329,8.299-0.826,9.628-4.815C305.397,490.109,303.241,485.798,299.254,484.469z"/>
<polygon style="fill:#C27749;" points="182.676,286.35 197.899,286.35 197.899,425.726 182.676,446.024 "/>
<path style="fill:#85453D;" d="M142.214,484.469l17.627-5.876v-52.866h38.057v50.741c0,3.276-2.097,6.185-5.204,7.221
	l-45.667,15.223c-3.986,1.329-8.299-0.826-9.628-4.815C136.07,490.109,138.226,485.798,142.214,484.469z"/>
<path style="fill:#FFE2A8;" d="M512,354.718c0-16.745-13.701-30.446-30.446-30.446l-30.446,91.338L512,385.164V354.718z"/>
<polygon style="fill:#FFCB63;" points="451.108,385.164 481.554,476.502 512,476.502 512,385.164 "/>
<path style="fill:#FFE2A8;" d="M327.294,354.718c0-16.745,13.701-30.446,30.446-30.446l30.446,91.338l-60.892-30.446V354.718z"/>
<polygon style="fill:#FFCB63;" points="388.186,385.164 357.74,476.502 327.294,476.502 327.294,385.164 "/>
<polygon style="fill:#C27749;" points="481.554,324.272 357.74,324.272 357.74,385.164 419.647,446.056 481.554,385.164 "/>
<rect x="357.74" y="385.162" style="fill:#A45E43;" width="123.814" height="91.338"/>
<path style="fill:#FFE2A8;" d="M434.87,369.941c0-8.407-6.816-15.223-15.223-15.223s-15.223,6.816-15.223,15.223v15.223
	l15.223,15.223l15.223-15.223V369.941z"/>
<path style="fill:#FFCB63;" d="M404.424,385.164v15.223c0,8.407,6.816,15.223,15.223,15.223s15.223-6.816,15.223-15.223v-15.223
	H404.424z"/>
<path style="fill:#A45E43;" d="M205.51,230.904l15.223,91.338c25.222,0,45.669-20.447,45.669-45.669L205.51,230.904z"/>
<path style="fill:#C27749;" d="M175.064,276.573c0,25.222,20.447,45.669,45.669,45.669v-91.338L175.064,276.573z"/>
<polygon style="fill:#60312C;" points="220.733,276.573 266.402,276.573 266.402,246.127 205.51,215.681 "/>
<polygon style="fill:#85453D;" points="220.733,276.573 175.064,276.573 175.064,246.127 220.733,215.681 "/>
<polygon style="fill:#FFE2A8;" points="251.179,154.786 220.733,154.777 190.287,200.446 220.733,246.107 251.179,246.115 
	266.402,200.451 "/>
<polygon style="fill:#FFF0D3;" points="220.733,154.777 190.287,154.786 175.064,200.451 190.287,246.115 220.733,246.107 "/>
<path style="fill:#A45E43;" d="M180.145,154.789c-11.21,0-20.297,9.087-20.297,20.297l-0.006,135.521h30.446V154.789H180.145z"/>
<path style="fill:#85453D;" d="M261.328,154.789h-10.149v155.818h30.446V175.087C281.625,163.878,272.538,154.789,261.328,154.789z"
	/>
<path style="fill:#FFB4A9;" d="M220.733,32.993v91.338c25.222,0,45.669-20.447,45.669-45.669S245.956,32.993,220.733,32.993z"/>
<path style="fill:#FFD9D4;" d="M235.956,78.662c0-25.222-6.816-45.669-15.223-45.669c-25.222,0-45.669,20.447-45.669,45.669
	s20.447,45.669,45.669,45.669C229.141,124.331,235.956,103.885,235.956,78.662z"/>
<polygon style="fill:#85453D;" points="246.105,12.696 228.17,12.696 210.544,32.994 233.357,53.292 258.713,53.292 "/>
<polygon style="fill:#A45E43;" points="195.362,12.696 182.755,53.292 233.357,53.292 228.17,12.696 "/>
<path style="fill:#85453D;" d="M296.848,60.902h-152.23c-4.204,0-7.611-3.407-7.611-7.611s3.408-7.611,7.611-7.611h152.23
	c4.204,0,7.612,3.407,7.612,7.611S301.052,60.902,296.848,60.902z"/>
<g>
</g>
<g>
</g>
<g>
</g>
<g>
</g>
<g>
</g>
<g>
</g>
<g>
</g>
<g>
</g>
<g>
</g>
<g>
</g>
<g>
</g>
<g>
</g>
<g>
</g>
<g>
</g>
<g>
</g>
</svg>
