<?xml version="1.0" encoding="iso-8859-1"?>
<!-- Generator: Adobe Illustrator 19.0.0, SVG Export Plug-In . SVG Version: 6.00 Build 0)  -->
<svg version="1.1" id="Capa_1" xmlns="http://www.w3.org/2000/svg" xmlns:xlink="http://www.w3.org/1999/xlink" x="0px" y="0px"
	 viewBox="0 0 512 512" style="enable-background:new 0 0 512 512;" xml:space="preserve">
<path style="fill:#FFE29E;" d="M414.496,188.746c45.493,0,82.504-37.011,82.504-82.504c0-4.142,3.358-7.5,7.5-7.5
	c4.142,0,7.5,3.358,7.5,7.5c0,53.764-43.74,97.504-97.504,97.504h-20.001v-15.001H414.496z"/>
<path style="fill:#FFF1CF;" d="M324.523,188.746c-27.318,0-51.856,12.134-68.508,31.293l-9.128,2.503v10
	c-8.321,13.708-13.117,29.782-13.117,46.957c0,18.549,5.558,36.387,16.075,51.584l12.336-8.535
	c-8.772-12.678-13.41-27.564-13.41-43.049c0-11.546,2.596-22.496,7.235-32.297l7.936-3.174c0,0,0-10,1.187-11.497
	c13.888-17.524,35.351-28.784,59.395-28.784h20.001v-15.001H324.523z"/>
<g>
	<path style="fill:#FFC5BB;" d="M255.999,247.195c4.639,9.802,7.246,20.747,7.246,32.292c0,15.476-4.64,30.361-13.418,43.047
		c-2.357,3.406-1.506,8.078,1.9,10.435c1.302,0.901,2.789,1.333,4.261,1.333c2.379,0,4.718-1.129,6.174-3.233
		c10.521-15.206,16.084-33.043,16.084-51.583c0-17.174-4.796-33.248-13.118-46.956C261.558,237.035,258.482,241.946,255.999,247.195
		z"/>
	<path style="fill:#FFC5BB;" d="M187.508,188.746h-20.001v15.001h20.001c24.044,0,45.491,11.273,59.379,28.797
		c2.689-4.429,5.746-8.611,9.129-12.504C239.363,200.881,214.826,188.746,187.508,188.746z"/>
	<path style="fill:#FFC5BB;" d="M97.504,188.746c-45.493,0-82.504-37.011-82.504-82.504c0-4.142-3.358-7.5-7.5-7.5
		S0,102.1,0,106.243c0,53.764,43.74,97.504,97.504,97.504h20.001v-15.001H97.504z"/>
</g>
<path style="fill:#B26156;" d="M115.97,282.361l-14.976,0.864l11.669,202.234l-24.554,8.185c-3.93,1.31-6.053,5.557-4.744,9.487
	c1.048,3.143,3.974,5.13,7.114,5.13c0.786,0,1.586-0.125,2.373-0.387l30.001-10c3.214-1.071,5.311-4.165,5.116-7.547L115.97,282.361
	z"/>
<path style="fill:#864941;" d="M168.998,282.361l14.976,0.864l-11.67,202.234l24.554,8.185c3.93,1.31,6.053,5.557,4.744,9.487
	c-1.048,3.143-3.974,5.13-7.114,5.13c-0.786,0-1.586-0.125-2.373-0.387l-30.001-10c-3.214-1.071-5.311-4.165-5.116-7.547
	L168.998,282.361z"/>
<path style="fill:#5DC09A;" d="M342.98,282.361l-14.976,0.864l11.669,202.234l-24.554,8.185c-3.93,1.31-6.053,5.557-4.744,9.487
	c1.048,3.143,3.974,5.13,7.114,5.13c0.786,0,1.586-0.125,2.373-0.387l30.001-10c3.214-1.071,5.311-4.165,5.116-7.547L342.98,282.361
	z"/>
<path style="fill:#4DA081;" d="M396.008,282.361l14.976,0.864l-11.67,202.234l24.554,8.185c3.93,1.31,6.053,5.557,4.744,9.487
	c-1.048,3.143-3.974,5.13-7.114,5.13c-0.786,0-1.586-0.125-2.373-0.387l-30.001-10c-3.214-1.071-5.311-4.165-5.116-7.547
	L396.008,282.361z"/>
<polygon style="fill:#B26156;" points="157.485,18.739 127.483,93.742 187.486,93.742 187.486,18.739 "/>
<path style="fill:#CC8073;" d="M142.484,18.739c-24.854,0-45.002,20.148-45.002,45.002v30.001h60.003V18.739
	C157.485,18.739,142.484,18.739,142.484,18.739z"/>
<path style="fill:#4DA081;" d="M369.494,3.738l15.001,90.004h30.001V48.74C414.496,23.886,394.348,3.738,369.494,3.738z"/>
<path style="fill:#5DC09A;" d="M369.494,3.738c-24.854,0-45.002,20.148-45.002,45.002v45.002h60.003V48.74
	C384.495,23.886,377.779,3.738,369.494,3.738z"/>
<path style="fill:#4DA081;" d="M369.494,258.749v75.003c24.854,0,45.002-20.148,45.002-45.002L369.494,258.749z"/>
<path style="fill:#5DC09A;" d="M384.495,288.75l-30.001-30.001l-30.001,30.001c0,24.854,20.148,45.002,45.002,45.002
	C377.779,333.752,384.495,313.604,384.495,288.75z"/>
<path style="fill:#FFE29E;" d="M394.495,168.745h-30.001l20.001,120.005h30.001V188.746
	C414.496,177.701,405.541,168.745,394.495,168.745z"/>
<path style="fill:#FFF1CF;" d="M364.494,168.745h-20.001c-11.046,0-20.001,8.954-20.001,20.001V288.75h60.003V188.746
	C384.495,177.701,375.54,168.745,364.494,168.745z"/>
<path style="fill:#63352F;" d="M369.494,48.74v65.003l45.002-20.001C414.496,68.888,394.348,48.74,369.494,48.74z"/>
<path style="fill:#CC8073;" d="M369.494,78.761v59.983c24.854,0,45.002-20.148,45.002-45.002
	C397.603,93.742,382.026,88.168,369.494,78.761z"/>
<path style="fill:#864941;" d="M384.346,87.446c-1.021-21.871-7.279-38.706-14.852-38.706c-7.667,0-14.885,1.923-21.203,5.305
	l21.203,59.698L384.346,87.446z"/>
<path style="fill:#E59F8F;" d="M348.291,54.045c-14.162,7.58-23.799,22.511-23.799,39.697c0,24.854,20.148,45.002,45.002,45.002
	c8.284,0,15.001-20.148,15.001-45.002c0-2.138-0.053-4.238-0.149-6.296C368.903,80.667,356.189,68.84,348.291,54.045z"/>
<path style="fill:#864941;" d="M142.484,258.749v75.003c24.854,0,45.002-20.148,45.002-45.002L142.484,258.749z"/>
<path style="fill:#B26156;" d="M157.485,288.75l-30.001-30.001L97.482,288.75c0,24.854,20.148,45.002,45.002,45.002
	C150.769,333.752,157.485,313.604,157.485,288.75z"/>
<path style="fill:#E44670;" d="M167.485,168.745h-30.001l20.001,120.005h30.001V188.746
	C187.486,177.701,178.532,168.745,167.485,168.745z"/>
<path style="fill:#FF6288;" d="M137.484,168.745h-20.001c-11.046,0-20.001,8.954-20.001,20.001V288.75h60.003V188.746
	C157.485,177.701,148.53,168.745,137.484,168.745z"/>
<path style="fill:#FFA4A9;" d="M142.484,48.74v90.004c24.854,0,45.002-20.148,45.002-45.002S167.338,48.74,142.484,48.74z"/>
<path style="fill:#FFC5BB;" d="M157.485,93.742c0-24.854-6.716-45.002-15.001-45.002c-24.854,0-45.002,20.148-45.002,45.002
	s20.148,45.002,45.002,45.002C150.769,138.744,157.485,118.596,157.485,93.742z"/>
<g>
	<circle style="fill:#FFFFFF;" cx="142.486" cy="199.379" r="7.5"/>
	<circle style="fill:#FFFFFF;" cx="142.486" cy="229.38" r="7.5"/>
</g>
<g>
</g>
<g>
</g>
<g>
</g>
<g>
</g>
<g>
</g>
<g>
</g>
<g>
</g>
<g>
</g>
<g>
</g>
<g>
</g>
<g>
</g>
<g>
</g>
<g>
</g>
<g>
</g>
<g>
</g>
</svg>
