<?xml version="1.0" encoding="iso-8859-1"?>
<!-- Generator: Adobe Illustrator 19.0.0, SVG Export Plug-In . SVG Version: 6.00 Build 0)  -->
<svg version="1.1" id="Capa_1" xmlns="http://www.w3.org/2000/svg" xmlns:xlink="http://www.w3.org/1999/xlink" x="0px" y="0px"
	 viewBox="0 0 512 512" style="enable-background:new 0 0 512 512;" xml:space="preserve">
<path style="fill:#F0E4D6;" d="M203.182,229.591v-35.212c0-19.446,15.766-35.212,35.212-35.212h35.212
	c19.446,0,35.212,15.766,35.212,35.212v35.212"/>
<path style="fill:#E8DCCF;" d="M293.527,165.373c-21.585,28.407-50.336,50.573-83.303,64.218h98.594v-35.212
	C308.818,182.777,303.096,171.923,293.527,165.373z"/>
<path style="fill:#FEC9A3;" d="M256,71.137L256,71.137c19.446,0,35.212,15.766,35.212,35.212v17.606
	c0,19.446-15.766,35.212-35.212,35.212l0,0c-19.446,0-35.212-15.766-35.212-35.212v-17.606
	C220.788,86.903,236.554,71.137,256,71.137z"/>
<rect x="247.188" y="159.158" style="fill:#4398D1;" width="17.606" height="70.424"/>
<path id="SVGCleanerId_0" style="fill:#F0E4D6;" d="M423.257,159.167L423.257,159.167c24.305,0,44.015,19.71,44.015,44.015v96.833
	l0,0h-88.03l0,0v-96.833C379.242,178.877,398.952,159.167,423.257,159.167z"/>
<path id="SVGCleanerId_1" style="fill:#4398D1;" d="M344.03,335.227v96.833h-52.818l17.606-26.409v-70.424l0,0
	c0-19.446,15.766-35.212,35.212-35.212h123.242v35.212H344.03z"/>
<rect id="SVGCleanerId_2" x="405.642" y="159.158" style="fill:#4398D1;" width="17.606" height="105.636"/>
<path id="SVGCleanerId_3" style="fill:#FEC9A3;" d="M414.454,159.167L414.454,159.167c-19.446,0-35.212-15.766-35.212-35.212
	v-17.606c0-19.446,15.766-35.212,35.212-35.212l0,0c19.446,0,35.212,15.766,35.212,35.212v17.606
	C449.666,143.401,433.9,159.167,414.454,159.167z"/>
<path style="fill:#E8594A;" d="M370.439,335.227L370.439,335.227c0-19.446,15.766-35.212,35.212-35.212h44.015
	c9.727,0,17.606-7.879,17.606-17.606v-52.818l0,0c0-19.446,15.766-35.212,35.212-35.212h8.803l-15.335,122.696
	c-1.303,10.37-10.115,18.152-20.564,18.152H370.439z"/>
<g>
	<path id="SVGCleanerId_0_1_" style="fill:#F0E4D6;" d="M423.257,159.167L423.257,159.167c24.305,0,44.015,19.71,44.015,44.015
		v96.833l0,0h-88.03l0,0v-96.833C379.242,178.877,398.952,159.167,423.257,159.167z"/>
</g>
<g>
	<path id="SVGCleanerId_1_1_" style="fill:#4398D1;" d="M344.03,335.227v96.833h-52.818l17.606-26.409v-70.424l0,0
		c0-19.446,15.766-35.212,35.212-35.212h123.242v35.212H344.03z"/>
</g>
<g>
	<path id="SVGCleanerId_3_1_" style="fill:#FEC9A3;" d="M414.454,159.167L414.454,159.167c-19.446,0-35.212-15.766-35.212-35.212
		v-17.606c0-19.446,15.766-35.212,35.212-35.212l0,0c19.446,0,35.212,15.766,35.212,35.212v17.606
		C449.666,143.401,433.9,159.167,414.454,159.167z"/>
</g>
<path style="fill:#F0E4D6;" d="M132.758,300.015h-88.03l0,0v-96.833c0-24.305,19.71-44.015,44.015-44.015l0,0
	c24.305,0,44.015,19.71,44.015,44.015V300.015L132.758,300.015z"/>
<path style="fill:#4398D1;" d="M167.97,335.227v96.833h52.818l-17.606-26.409v-70.424l0,0c0-19.446-15.766-35.212-35.212-35.212
	H44.728v35.212H167.97z"/>
<path style="fill:#FEC9A3;" d="M97.546,71.137L97.546,71.137c19.446,0,35.212,15.766,35.212,35.212v17.606
	c0,19.446-15.766,35.212-35.212,35.212l0,0c-19.446,0-35.212-15.766-35.212-35.212v-17.606C62.334,86.903,78.1,71.137,97.546,71.137
	z"/>
<polygon style="fill:#B86E3C;" points="352.833,247.197 159.167,247.197 159.167,264.803 247.197,264.803 247.197,440.863 
	264.803,440.863 264.803,264.803 352.833,264.803 "/>
<path style="fill:#E8DCCF;" d="M379.242,280.358v19.657h88.03v-96.833c-0.018-9.314-3.011-18.372-8.548-25.854
	C437.069,236.202,404.251,265.014,379.242,280.358z"/>
<g>
	<rect id="SVGCleanerId_2_1_" x="405.642" y="159.158" style="fill:#4398D1;" width="17.606" height="105.636"/>
</g>
<path style="fill:#E8DCCF;" d="M44.728,288.879v11.136h88.03v-96.833c-0.044-3.671-0.555-7.324-1.514-10.872
	C110.733,231.087,81.032,264.248,44.728,288.879z"/>
<rect x="88.734" y="159.158" style="fill:#4398D1;" width="17.606" height="105.636"/>
<path style="fill:#B86E3C;" d="M106.349,300.015H62.334c-9.727,0-17.606-7.879-17.606-17.606v-52.818
	c0-19.446-15.766-35.212-35.212-35.212H0.713l15.335,122.696c1.259,9.895,9.402,17.492,19.367,18.046L0,440.863h18.557
	l35.406-105.636h69.993v105.636h17.606V335.227C141.561,315.781,125.795,300.015,106.349,300.015z"/>
<g>
	<rect x="123.946" y="335.218" style="fill:#94552B;" width="17.606" height="17.606"/>
	<rect x="247.188" y="264.794" style="fill:#94552B;" width="17.606" height="17.606"/>
	<polygon style="fill:#94552B;" points="53.962,335.227 35.397,335.227 29.745,352.102 48.302,352.102 	"/>
</g>
<g>
	<path style="fill:#FABD91;" d="M107.458,72.73c5.018,7.298,7.703,15.96,7.694,24.816v22.007
		c-0.035,16.462-9.296,31.506-23.962,38.971c18.918,3.688,37.237-8.662,40.925-27.58c0.449-2.306,0.66-4.648,0.643-6.99v-17.606
		C132.723,90.768,122.414,77.079,107.458,72.73z"/>
	<path style="fill:#FABD91;" d="M265.912,72.73c5.018,7.298,7.703,15.96,7.694,24.816v22.007
		c-0.035,16.462-9.296,31.506-23.962,38.971c18.918,3.688,37.237-8.662,40.925-27.58c0.449-2.306,0.66-4.648,0.643-6.99v-17.606
		C291.177,90.768,280.868,77.079,265.912,72.73z"/>
	<path style="fill:#FABD91;" d="M424.366,72.73c5.018,7.298,7.703,15.96,7.694,24.816v22.007
		c-0.035,16.462-9.296,31.506-23.962,38.971c18.918,3.688,37.237-8.662,40.925-27.58c0.449-2.306,0.66-4.648,0.643-6.99v-17.606
		C449.631,90.768,439.322,77.079,424.366,72.73z"/>
</g>
<rect x="370.43" y="335.218" style="fill:#E8594A;" width="17.606" height="105.636"/>
<path style="fill:#B86E3C;" d="M512,440.863l-35.432-105.742c9.965-0.555,18.108-8.152,19.367-18.046l15.352-122.696h-8.803
	c-19.446,0-35.212,15.766-35.212,35.212v52.818c0,9.727-7.879,17.606-17.606,17.606h-44.015c-19.446,0-35.212,15.766-35.212,35.212
	v105.636h17.606V335.227h69.993l35.406,105.636H512z"/>
<g>
	<rect x="370.43" y="335.218" style="fill:#94552B;" width="17.606" height="17.606"/>
	<polygon style="fill:#94552B;" points="458.029,335.227 476.594,335.227 482.246,352.102 463.68,352.102 	"/>
</g>
<g>
</g>
<g>
</g>
<g>
</g>
<g>
</g>
<g>
</g>
<g>
</g>
<g>
</g>
<g>
</g>
<g>
</g>
<g>
</g>
<g>
</g>
<g>
</g>
<g>
</g>
<g>
</g>
<g>
</g>
</svg>
