<svg height="512pt" viewBox="0 0 512 512.00102" width="512pt" xmlns="http://www.w3.org/2000/svg"><path d="m360.789062 157.507812c-84.550781 0-137.621093-32.382812-149.914062-36.578124v239.859374c0 115.730469 140.621094 149.113282 146.617188 150.609376l3.296874.601562 3.296876-.601562c5.996093-1.496094 147.613281-34.878907 147.613281-135.617188v-254.851562c-11.992188 4.195312-66.960938 36.578124-150.910157 36.578124zm0 0" fill="#bee8c9"/><path d="m511.699219 120.929688v254.851562c0 100.738281-141.617188 134.121094-147.613281 135.617188l-3.296876.601562v-354.492188c83.949219 0 138.917969-32.382812 150.910157-36.578124zm0 0" fill="#80d398"/><path d="m365.886719 301.425781-4.796875-1.5h-.300782l-4.496093 1.800781c-31.78125 11.09375-85.449219 36.875-85.449219 86.648438v37.175781l20.6875-8.394531c22.484375-8.992188 45.871094-13.191406 69.257812-13.191406 23.386719 0 46.773438 4.199218 69.261719 13.191406l20.6875 8.394531v-52.167969c0-40.777343-65.0625-65.363281-84.851562-71.957031zm0 0" fill="#697c86"/><path d="m397.46875 227.4375 59.964844 29.980469-13.410156 26.820312-59.964844-29.984375zm0 0" fill="#465a61"/><path d="m292.203125 276.917969-13.410156-26.820313 45.308593-22.648437 13.410157 26.820312zm0 0" fill="#697c86"/><path d="m150.910156 36.578125c-84.546875 0-138.617187-32.378906-150.910156-36.578125v240.859375c0 115.730469 141.617188 148.113281 147.613281 149.613281l3.296875.597656 3.300782-.597656c5.996093-1.5 146.613281-33.882812 146.613281-134.621094v-255.851562c-11.992188 4.199219-65.960938 36.578125-149.914063 36.578125zm0 0" fill="#ececf1"/><path d="m300.824219 0v255.851562c0 100.738282-140.617188 133.121094-146.613281 134.621094l-3.300782.597656v-354.492187c83.953125 0 137.921875-32.378906 149.914063-36.578125zm0 0" fill="#d3d3d8"/><path d="m220.171875 212.074219c-22.488281 8.996093-45.871094 13.191406-69.261719 13.191406-23.386718 0-46.769531-4.195313-69.257812-13.191406l-20.6875-8.394531v37.179687c0 49.769531 53.667968 75.554687 85.449218 86.648437l4.496094 1.800782h.300782l4.796874-1.800782c19.789063-6.597656 84.851563-30.882812 84.851563-71.65625v-52.171874zm0 0" fill="#697c86"/><path d="m234.15625 107.511719 13.40625 26.820312-59.960938 29.980469-13.410156-26.820312zm0 0" fill="#465a61"/><path d="m67.671875 107.515625 59.960937 29.980469-13.410156 26.820312-59.960937-29.984375zm0 0" fill="#697c86"/><g fill="#465a61"><path d="m240.859375 203.679688v52.171874c0 40.773438-65.0625 65.058594-84.851563 71.65625l-4.796874 1.800782h-.300782v-104.042969c23.390625 0 46.773438-4.195313 69.261719-13.191406zm0 0"/><path d="m450.738281 373.378906v52.171875l-20.691406-8.394531c-22.484375-8.996094-45.871094-13.191406-69.257813-13.191406v-104.042969h.300782l4.796875 1.5c19.789062 6.597656 84.851562 31.183594 84.851562 71.957031zm0 0"/></g></svg>